<mxfile host="65bd71144e">
    <diagram id="0656yZ9kHqxtwLEcuWUI" name="Page-1">
        <mxGraphModel dx="1725" dy="1029" grid="1" gridSize="10" guides="1" tooltips="1" connect="1" arrows="1" fold="1" page="1" pageScale="1" pageWidth="850" pageHeight="1100" math="0" shadow="0">
            <root>
                <mxCell id="0"/>
                <mxCell id="1" parent="0"/>
                <mxCell id="17" value="" style="image;html=1;image=img/lib/clip_art/computers/Server_Tower_128x128.png" parent="1" vertex="1">
                    <mxGeometry x="330" y="295.5" width="110" height="141" as="geometry"/>
                </mxCell>
                <mxCell id="10" value="" style="image;html=1;image=img/lib/clip_art/people/Suit_Man_128x128.png" parent="1" vertex="1">
                    <mxGeometry x="10" y="320" width="60" height="80" as="geometry"/>
                </mxCell>
                <mxCell id="11" value="" style="image;html=1;image=img/lib/clip_art/computers/MacBook_128x128.png" parent="1" vertex="1">
                    <mxGeometry x="130" y="310.5" width="80" height="86" as="geometry"/>
                </mxCell>
                <mxCell id="27" style="edgeStyle=none;shape=flexArrow;html=1;" parent="1" source="12" target="14" edge="1">
                    <mxGeometry relative="1" as="geometry"/>
                </mxCell>
                <mxCell id="12" value="" style="dashed=0;outlineConnect=0;html=1;align=center;labelPosition=center;verticalLabelPosition=bottom;verticalAlign=top;shape=mxgraph.weblogos.chrome" parent="1" vertex="1">
                    <mxGeometry x="170" y="356.5" width="40" height="40" as="geometry"/>
                </mxCell>
                <mxCell id="14" value="" style="shape=image;verticalLabelPosition=bottom;labelBackgroundColor=default;verticalAlign=top;aspect=fixed;imageAspect=0;image=data:image/png,iVBORw0KGgoAAAANSUhEUgAAANIAAADwCAMAAABCI8pNAAAAhFBMVEUBljn///8hnUgAjh/4/foyoVIAjyMAlDTS6NhJqWQAky8AlTYAjRp7vIwAkSrL5NJyuIRVrGxqtX7f7+Tu9/HD4Mvn8+vy+fSBwJKz2L0OmT/h8OVdsHPH48+q1LVCpl+fzquMxZssn0+TyaI4o1iby6ey2LwAig5stX+Iw5elz69hsnfMRElYAAAJ+UlEQVR4nNWda0PiOhCGU4oJJjHiBRBEbgvuqv///50iemhLk8nkUpL3827bRzoD70ySIUU/mt98PfV0K9LLXSYLKph86AeqD6TRngpSicnH5x5uFx9p9igZ+REvt9HvFx/pUHJSkxKT2HeMjDRZKNKUKNeRQyoq0uu6FORCTI6HMe8aEWl4dw6ipjjdxLttRKQN5d1A3yG1iBdSsZDeBu0gaofU7WukW8dBmj50BVE7pO7ihFQUpBddELVCSq1i3D0C0koZgqgpOngLf//gSKMdBd+5+tv3MA39BIGRnpd271wd6iPsIwRG+pDW79xZKnBIhUSaM3Pi1knQ3SjgY4RDGt1ggqgpJpfhbEcopLqFcFFA2xEI6U/pEERNKTYP8yxBkObELYiaEvQmSEgFQHrauwdRU5WTnyWANPznF0RN8fLP1ZEOJgvhIkV8bYcf0qUP95egnk7eB+n1FrYQLvJ08u5Ieh/uL04PV0D6tLcQLvJw8o5IbwMaE4j4OHknJBsf7i9XJ++C9BEviJri9LMXpBUPn7i1cnHyWCScD/eXKNFOHoeE9+H+YvIlItLWxYf7C+nkEUjvjj7cX5WTv4+A5OPD/YVx8pZIvj7cX1xugyIF8OH+Uuw9GNIkiA/3l6WTh5HC+XB/CfkFhxSEFNaH+8vCyQNIwX24vxQBimNGpBg+3F+C7o1O3oAUy4f7q3LyhuKYFimmD/cXL/VOXof0mV4QNaV38t1IUD88BWmXuXQh9ePD/aVx8pdIQ8t+eArqdPIXSIh+eApSl06+hXQ/SOfXj50unXwDaXoFH+6vtpOvI13Jh/uruczljPTeZzErtOjg/gLpuj7cXzUnf0J6/pJZAx3Ff5e5fCNtU/Dh/lL8/QdpcrViVmhVTn56RFr9Rb9zgitaSilLSlX4rM8UlZSXpct3PiufCjKV2P/Gy912Pnqufl7NXt82Sxr2NzuT69X3z9HnyZjiXx9GCvKBfCAmH1s/gN8eA36flY2NGQeKfgnUiuxxrx0fdPyin4XKL0y1TNDsFvtBsSVZoP6DWl4Cfd/6K4QfEeSypDXGdlAXZID55+qrm6jSxD9RCN5VpHtEfk44JHajJao+qJ3vyye7a6k73Oc/QCFJc0Pu1o+Ja1pjT7icjELi0MJaPyaq65+PUZdFIUlwZdnOI550H1L1MZWY62CQ2ANEVDwr97xH9V2JAeaqGCSbjukI/Vvkf1H9VV8wbx4GyfBnPGvuysTWhoti8jgGqbTqlm4dFxfxR/017zHXRCHZrehZuqW9lJEc017SSDPmkvaSRsJ+3Z+UNlIxcWBKHKn4g097qSOhHUEGSMUem8rTRxoSZNpLH6mYon4+Z4GETXs5IBUb1OfE/+mvNEoFqRhj0h4f54BUrBFpLxSS2EVFGi7sf8EGQ7qJilRM7Z8lF6Ti3jrtZYNUfNqmvXyQrNNeRki29cqckAq7tJcV0tRq+UFWSHb1yryQipVF2ssMqbiD015uSMUDmPaSQ9pCTAMo7SWHtIaYwDYNv0sM6eEvdKQGlPbSQ2IS2v7/bmZKEElwqO35Ynyw5JBuGWE7AMmc9lJEIlyzcuUsU9pLEonQLYA0M6S9NJGIhNKeoU2TKBIB056+O50qEpz2tN3pVJEIGwBI2u50skgWae+mO+2li0QotHZK051OGIlIaNt1d9pLGUm3UvCszjZN0khCQStzurrTSSNZpL2O7nTaSISDK/cuu9OJIxEKneAyFO20lzoSkdByxNd2HSx5JDjtvbXSXvpIcNprdafTR7JIe802TQZIhN9CTI3udA5IRBke8qRFLe1lgURKKO3V2zR5IMFpr1avzARJUOgguHObJhMkIhYA0rlemQuSRdr7rVdmg0SUocdy0k+9Mh8kUkLjYWZcZIZEJHRa38m4J9cyMyCREkp73/XKrJAYeLrb0bhnhUS4YWvSSZVxzwuJKMO61ZP2PDMkOO0Njdk+RSQioaO0pzLQCuTekEgJnaQ9MVSV0kQSAlrbYvjVniYSYXsAyUSbJhJRhh0ImSIR6jyVI1kkOO3lhwR3p/NDEsxtSV/CSOZjPRJDerDcLwJ3p7NDghfl5IcEL8rJD8kl7aWOJBR6uFfqSBZtmuyQLLrT2SHB3emWMPtqr4QEd6fzQ4LbNPkhCYoZE5oFEmFgmyY7JIs2TXZIFm2a7JBIaT2oLBskuE2THxIBu9P5ITFiZ9yvgmRp1NvidvXKeEgGU7B3PJHRrl45iYZk8G7OZ11bjTzdIC6PQlJ6i409oacmm3rlEvEOoJAMx+p8epxILsGBp0PMHwyFpD9Y1etwU7heifqD4ZCU7r2fuL93lcBNhKgjBHFIhGpy3sLvlGo+MBZY7lAnniGRNAeRoo5Q6rwuNzhC5LGpSKTur5GD12t3eg6p3SKEPRERi0TUZXHnw5+I6IdebbBnPFZIyNO6OWkOB5qiT5rXPQrdXX7vPa3RJzxWSP+wVYNyff57jkIOQmSKjie1RDGb3zpcnb+Q9kYBi1tTtTzMJ/PNmISeYsJVufj6OKw+Dx/LRel0NL58JcXS4c1h6igeY86MYPz72k7n2VZEh+OAlWX+I3B+xeTmNAYnh5F5NvqZAXZa/pf8YEMb/c5c/1nROBznOMWsLq5+C07/L9J8Wucx37Bb9amHtXWnaY5ytZEob2umq7GUNomp1Xi1fkw1VwfPEhuLbCPeLl+0FzynNLzaRkyO26b4cg33PKPRZoJ2DHjtWpaezQC67snWnSvt8xgTqJs/rtk8MNqlHlJMPmoqFtr9EKukR24KeqMtVxi2eHykm9AVMyyuMu1amT6USUJxffEFQvoeMnzt579QbeapC9KxeJtWQhd0B60CAbdLpTX1XnF4qQ6IdKxrpWI72lOenZFSsR2Xs7g9kIpic30nXx/vHALp6k6eU2ijGhrpuk6+7sMDIlUhRa4TUk0fHhTpSk5e19QIg1TMHvsOqQsfHhqpbyfP5D/0Zho0Up9OvtOHx0Dqzcl3+/A4SL04eZ0Pj4RUOfmbuCHF5Bd6a4YnUlG8R3TyJh8eEeno5COFlNGHR0WqnHyMbykutz4P5YcUw8mDPjw2UlGsgjp5Cx8eH6kYvoR7+5TNfOn4SN/FsSAJ3c6HgwqBdOzJ+4eUkHY+HFQYpADFMWsfDioUkmdxjFPrDRiggiEVxatzcQzlw0EFRHItjiF9OKigSE7FMawPBxUYCV0cw/twUKGRcMWxjn64v8Ij2RfH3Hw4qBhIRXGwCSlFAgfRj+IgWSxz4WXwIPpRJCSoOKbvh/srGlJRzIUupATde1sIvSIiaevNfj4cVFSkznozL7dR7xkZqShGrZAS8svTh4OKjdSsN4fw4aDiI1Uh9VscUxyaJxNCfSAd681cCGBRSTD1glSF1N1+/RLGh4P6D6nrxF9TZ17iAAAAAElFTkSuQmCC;" parent="1" vertex="1">
                    <mxGeometry x="310" y="328.5" width="43.75" height="50" as="geometry"/>
                </mxCell>
                <mxCell id="9" value="" style="shape=image;verticalLabelPosition=bottom;labelBackgroundColor=default;verticalAlign=top;aspect=fixed;imageAspect=0;image=data:image/jpeg,/9j/4AAQSkZJRgABAQAAAQABAAD/2wCEAAkGBxANEA0NDw0QDQ8PDg0OEA0NDw8PDQ8NFxUWGBYRFRgYHyggGBolGxUVITEhJiktLjMuFx8zOzUuNygtLjcBCgoKDg0OGhAQGCslHSUtMysrKystLTAtLS4rLS0rLS0uKysxLS0rLS8rLS0rLS4rKysrLS0rLS0rMC8rLS0tK//AABEIAOsA1gMBEQACEQEDEQH/xAAcAAEAAgMBAQEAAAAAAAAAAAAAAQIEBQYHAwj/xABNEAACAQIBBQoHCwoGAwAAAAAAAQIDEQQFBhIhMRMyQVFUYXGBkbEHFCJSoaLRU2JjcnSCk5SywdIVFyQzNEKS0+HwFoOzwuPxIzVz/8QAGgEBAQADAQEAAAAAAAAAAAAAAAECBAUDBv/EADoRAQABAgIEDAQFBQADAAAAAAABAgMEERIhMVIFExQyQVFhcYGRobHB0eHwFTM0YqIiI0JTYyRy8f/aAAwDAQACEQMRAD8A9xAAAAAAAA0eWs6cNg24OTq1VtpUrNxfvnsj0beY97eHrr19DwuYiijV0uUxufuIndUqVOiuOV6k+3UvQbdODojbObUqxlc7IyabEZy42pvsXUX/AM9Gl9hI9YsW4/xeM37k/wCTAq5Qrz32IrS+NVqS72ekUUx0Qw06uufNjTm3tbfS2ypnKqm1sbXQ7AfSGPrR3terH4tWce5mOjTPRDLTq65ZdDOTG097jK3z57r9u5hNm3P+MM4vXI2VS3GT/CFi6bSrRp4mPDdblUfXHV6p5VYSidmp604uuNut3OQM5sNj1anJwqpXdCpZVEuNcElzrrsaVyzVb27G7bvU3Nm1ujyeoAAAAAAAAAAAAAAAAAcznxlyWEpRpUpaNWtpeWtsKa2yXE3dJdfEbWGtRXVnOyGrir00U5Rtl5k2dNzGbgsjYnER06OHqVI+ekoxfQ3ZPqPOq7RTqmXpTarqjOIYeLw1SjJ06tOVKa16M4uLtxq+1c5lTVFUZxLGqmaZymHwbMmKrZFVbAq2BVhVWBNOrKEozhJwnFqUZxbUoyXCnwEmM9UkTlrh67mRnL+UKTjUssRRsqltSqReyol3rgfSjl37PFzq2OpYvcZGvbDpTwe4AAAAAAAAAAAAAAAA8v8ACBW0sbOPudKlD0OX+46mEjK25eLnO412bOAjisXQoz1wbcprjjFN6PXZLrPS9XoUTMPOzRp1xEvYIRUUopJJJJJKySWxI47sNLnhkyGJwla6WnShOrTl+9GUVdroaVn/AEPbD1zTXHa8b9EV0S8fbOs5KrYFWwKsKqwKtkFWwNzmblB4bHYWaeqdRUJrjhUajr5lJxfzTyv06VuY8XrZq0bkT4eb245LrAAAAAAAAAAAAAAAADyfPh/p+K/yf9KB1sN+VH30uTifzZ++hrsiZReExFHEJaShJ6UVtlBpqSXPZvrsZ3KNOmaWFuvQqip7Bk/H0sTBVaNSNSL4YvWnxNbU+ZnIqommcph16a4qjOJc9nxnDSoUKuGhNTr1YypuMXfc4SVpSlxOzdlt1mxh7M1VRVOyGviL0U0zTG2XljZ0nNVbAq2FVYENgVbIKthX3yW/0jDfKKH24mNfNnuWjnR3v0CcZ2QAAAAAAAAAAAAAAAB5Lnx/7DFf5P8ApQOthvyo++lycT+bP30NC2e7wVvw+kiqAVbAq2FQwKtgVbIKthVWwPvkt/pGG+UUPtxMa+bPcyo50d79BnGdgAAAAAAAAAAAAAAAAchl3Mp4zEVcT42qe6aHkbhp20YRjt01fe32cJt2sVoUxTo+rUu4XTrmrS9PqwPzcPly+rf8h6ct/b6/R58ine9Pqr+bZ8vX1b/kHLf2+v0ORTven1R+bV8vX1Z/zBy39vr9DkU73p9Ufm0fL19Wf8wct/b6/Q5FO96fVH5s3y9fVX/MJy39vr9F5FO96fVwmNobjVrUr6W5ValPStbS0ZON7cGw3KZziJadUZTMMdsqKtgVbCqtgZGS3+kYb5RQ+3Exr5s9zKjnR3v0IcZ2AAAAAAAAAAArUmoJylJRjFNuUmlFJbW29hYjPYTOW1yOVs+6VNuGHpuu1q3STcKV+bhl6Ok27eDqnXVOTTuYymNVMZudxGeuOnsqQpc1OlFr17mxGFtx0NecVcnpY7zwyhyp/RYf8Blya11e7HlN3e9kPPDKHKn9Dh/wDk1rd9zlN3e9lXnjlDlb+hw/4Bya1u+5ym7veyHnllDlb+hw/wCAnJrW77nKbu97KvPPKPK39Dh/wDk1rd9zlF3e9kPPTKPK39Dh/wAA5Na3fdeUXd72VeemUeVv6HD/AIBya11e5yi7veyHnrlHlb+hw34Bya11e5yi7vezQ160qkp1JO8pylOTsleUnduy1bWe0RlGUPKZznOXybCKthVGwKtgZGS/2jDfKKH24mNfNnuZUc6O97/jKjjG6dndcR8zj7tdq1pUTlObuWqYqqylheNT870R9hxuX4jf9I+TZ4qjqPGp+d6I+wcvxG/6R8jiqOpaONmttpdKselHCd6nnZT99jGbFM7GZQxCns1PhTOxhsZRfjVqnqeFduaX2Np5gAABEmkm27JK7b1JIDy7OzOOWNm6dNuOGg/Jjs3Vr9+X3L7zq2LEW4zna5V+/Nyco2OdZsNdDYFWwKNgVbIqrYFWwKsKhgVbIKtgVbCqtgVbAq2Bk5K/aMN8oofbiY182e5lTzo73vuP3nzkfK8J/keMO9Y5zXHzzbRcCCKmM3Fpp2aLRcqoqiqmdcE0xMZS29CrpxUu1cTPq8Pfi9biuPuXPrp0ZyfQ92IAA5fwgZSdHDKjF2niG4Pj3Jb/ALbxXRJm1hKNKvOehq4u5o0ZR0vNGdNzFWwKtgVbAq2RVWwKtgVbCqsCrZBVsCrYVVsCrYFWyCAMrJX7RhvlFD7cSV82e5lTzo73vuUN585HyvCn5HjDvWOc1tz51touRUNkVFyDMyXU1yhxq66f77jr8EXsq6rc9Ov7++hr4inVEtkd9qAADzPwh4rTxap31UaUI24py8p+hxOnhKcrefW5mLqzuZdTlmzaaqrYFWwKtkVVsCrYFWwqrAhsgo2BVsKq2BVsCrYEEADbZp4N4jHYKmvd6dR/Eg9OXoi+0wu1aNEy9LVOlXEdr27KUvJiuN36l/2fJ8LV5W6aeufb/wCu7h41zLX3OA21bmKouRUXIPphZ6M4PnS6nqNjB3NC/RV2++pjcpzomG8PsHNAAHjecdfdMXi5/D1Iroi9FeiKOzZjK3EdjjXpzuVT2tY2ejzVbAq2RVWwKtgVbCqsCGwKtkFWwqrYFWwKtgVIAAD1TwY5uSw8JY6tHRqVo6NKEl5UKGpuT4nJpdSXG0aGKu6U6MN/DWpiNKXTYytpydti1L2nxePxHHXZmNkaodm1Ro0se5pPVDZM1VuYqi5MxFyZq6GnK6T40mfcW69OiKuuM3KmMpyWM0APDMTU0pzl505y7W2dyIyjJw6pzmZfJsqKtkVVsCjYFWwqGBVsDMwmSMVXSdLC1qkXrU4056D+da3pPOq5TTtlnTbqq2QyXmplDkVX1faY8fb3mXEXN1DzUyhyKr6ntHH295eIubqrzTyhyKr6ntHH2944i5uqvNLKHIavqe0cfb3jiLm6j/COUeQ1fU9pOPt7xxFzdP8ACOUOQ1fU9o4+3vHE3N198LmPlGq0vFXTXn1alOMV0pNvsRJxFuOlYw9yeh2+bPg9pYaUa2KksTVjaUaaVsPCXHZ65vndlzcJq3cVNUZU6obVrCxTOdWuXT43F3vCL6Zfcj5nH8IRMTbtT3z8I+bqWrPTUwLnEbSLkEEVFyZqgiouYje4J3p0/ipdh9lgZzw1HdHo5l6Mq5fc23mAeEVFZtcTa7DuQ4cqNgVbAq2BVsKqwMzI+Sq2OqqjRjeW2UnqhTj50nwIwuXIojOWdFua5yh6lkLM/C4FKcoqvWVm61ZK0X7yL1R7+c5l/FTMTMzlDo2sNTT0Zy3c8bFbLy6NhyK+E7NOqnOfvtbsWKp2qePrzX2o8vxajdllxE9Z4+vNfah+LUbsnET1nj6819qH4tRuycRPWePrzX2ofi1G7JxE9Z4+vNfaifi1G5JyeetH5QXmvtQ/F6NyTk89asso8UO1mFXDG7R5ysYfrljVsVKepuy4lqRzb+NvXtVU6uqNj3otU07Hwuaj0Rciq3IIMVCKrcgi5Fb3J36qHQ+9n2HBv6Wju+LmX/zJZJvPIA8RyzS3PE4qHm4iul0abt6DtW5zoiexxbkZVzHawWzJiq2BVsCrCppU5VJRhCLlOcowjFbZTbskutkmcozkiM9UPac3cjU8m4dU1ZzaUq1RbalTm5lsS/qcXFYmIiblWyHYsWdGIpjatWrObu9nAuBHymIxNd+rOrZ0R1OjRRFManzNdmAAAEXIIuRUNkVFyCrZjmqCKi5M1QQRcmaobMVQ2RVWyZjosHG1Omvex7j7bBU6OHojshyrs51z3vsbTzAPJM/cNuWOrPgqxp1V0OOi/WjI6uGqztw5WJpyuS5xs93gq2BVsKhgdT4NsCq2N3SSusPSnUXFujtGPocn1GtiqsqMuts4WnOvPqemZQnrUeLW+k+R4Vu51RbjvduxTqzYZyGwAAAEEVFyCtzFUXIqLkEEVBFQYqi5MxW5FRciouRU046TjFfvNLtMrdE3K4ojpnLzSqdGJl0yVtR97EZRlDjJKAHA+FLBasNiktjlQm+nyod0+03sHVtp8WjjKdlXg8+bN5oqthVWBVsg73wSb/HP3mG76hp4zZT4/BuYPbV4fF2uM38uruR8XwhP/kVeHtDuWuZD4Gk9ACLkEXIqLkVFyCGyZqrcxVFyZiCKgiouRUXIIbMVVbIqCKzsj0tKppcEFfrepfedbgaxp39OdlMes6o+LWxVeVGXW3h9Y5oAAwcuZNjjMPWw8tWnHyZebUWuMuppGduvQqiphco06ZpeI4qhOjOdKpFwnTk4Si+CS/vadiJiYzhyJiYnKXwZUQ2BVsg77wR7/H/EwvfVNPGbKfH4N3B7avD4u0xm/l1dyPiuEP1FXh7Q7drmQ+JpvRFyKi5BVsiobMVRcggiouTNUEVFzERciqtkVFyCLkVBFQQdDk3D7nBJ76XlS6eI+z4NwvJ7ERPOnXPy8Icq/c069WxlHQeIAAAcvnhmnHHrdqTVPExVtJ7yrFbIztsfFLv1W2LF+beqdjXv2Iua42vLcpZOrYSWhXozou9k5LyZfFktUupnRprpq10y51VFVGqqGG2ZMVWwrv8AwRb/AB/xML31TSxmynx+Dcwe2rw+Ltcbv5dXcj4vhD9RV4e0O3a5kMc0XqhsiouQRcmaouRVbkzEGOalyKrcmYi5FQ2TNUNmKouTMQRRK+pa3xLWxETM5RrknU2uTsnNNTqK1tcYcN+Nn0PBvBVUVRdvRs2R8Z+Xm0r+IiY0afNtT6JogAAAAAVnBSTUkpJ7U1dMDBlkPByd3gsM3xuhSb7jPjK96fNhxdG7Hkr+QMFyHC/V6PsHG170+ZxVG7HkycHk6hh9J0cPSouVtJ0acKela9r6K17X2kqrqq2ytNFNOyGHjf1kuruR8twj+pq8PaHQs8yGO2aL1RcgrcxzVBFQ2SZVtqTo6Mb7lfRV76F72PprU4Li6dLQzyjdaNXG5zln6rXofBeoemlgP+f8WOV7t9S9D4L1CaXB/wDz/iZXu31L0PgfUGlwf/z/AIrle7fVF8P8D6hNLg//AJ/xMr37vUTw/wAD6hYng+Zyji/4n97t9X28Wp+5w/hibPI8P/rp8oefG170+Z4rT9zh/BEnI8P/AK6fKDja96fNHitP3OH8ERyPD/66fKDja96fN9IU4x2RUehJHtRboo5tMR3QxmqZ2ysZoAAAAAAAAAAADUY79ZL5vcj5bhH9TV4e0N+zzIY9zReqLkEEVBFQYqi5MxW5FRciouRUXMRajvofGj3npZ/Np7490q5sunPvnGAAAAAAAAAAAAAAAAGnx/6yfze5HyvCX6mvw9ob9nmQxrmg9kXJmIIqCKi5FRcghsxVkYLCOs3rtFbZfcjewOBqxVU68qY2z8I+9Tyu3otx2s+WSYW1SknxuzOxVwHZmnKmqc/D5fJqxi6s9cQ1OIounJwltXY1xnzuIw9di5Nuvb79reoriunOFaO+h8aPeYWPzae+Pda+bLqD79xgAAAAAAAAAAAAAAABqMpRtUb40n933Hy/CtGjiJnriJ+Hwb+HnOhiXObm90EVFzERciqtkVFyCLkVu8jtblq26Ur9P/Vj6zgaaZw0Zbc5z++7JzsVnxjOOq1mny41pQ49F36L6vvPmeHpjjKI6cp+nxb+Dz0ZYOFjpTpr38ey+s5OFomu/RTHXHv8mzcnKiZ7HTH3jjgAAAAAAAAAAAAAAADFx+H3SN1vo7OdcRzuEcJN+3nTzo2dvY9rFzQnXsaZnyk6nRVuQRciobIqLmKouQQRX3weLlSd1rT2xex+w3MHjbmFqzp1xO2PvZLyu2ouRrZ8ssK2qm787Vjr1cPU6P8ATROfbOprRg5z1y1daq5ycpO7f92OBevV3q5rrnXLcppimMobPI+Ea/8ALJcHkrm8473A2CmP79cf+vz+TTxV3P8AojxbU+haQAAAAAAAAAAAAAAAAAYuLwUamteTLjWx9JzsZwbbxH9Uaquvr73vavzRq6Gqr4ScNsbrzo60fO4jA37POp1dca4+njk3aLtFWyWNc0s3qi5FQRUEAAB9aOHnU3sW+fg7T3sYa7fn+3TM9vR57GFdymjnS2mEyWo2lUak/NW9XTxn0GD4GpomK705z1dH19mldxUzqp1NkdxqAAAAAAAAAAAAAAAAAAAAAPjVwtOe+gnz7H2o1buCsXefRHfsnzjW9KbtdOyWLPJNN7HKPWmvSaNfAmHq5szHj84+L2jF1xtyfJ5G4qnbG/3mtVwDHRc9PrDOMZ+31Fkb4X1P6kjgHrufx+q8s/b6vpDJEFtlJ9iR70cB2I51VU+XyYTi6+iIZNPA0o7IJ88vK7zetcHYa3sojx1+7xqv3Ktssg3XkAAAAAAAAAAAAAAAAAAAAAAAAAAAAAAAAAAAAAAAAAAAAAAAAAAAAC4EaQEaYEaYDdAG6AN0AnTAnSAXAkAAAAAAAAAAAAAAAAAAUbAq2BRsCrYEaQEaQDSAaQFlICUwLpgWTAumBIAAAAAAAAAAAAAAACriBVwAq4AVcAI0AI0AGgA0AJUALKAFlAC6iBYAAAAAAAAAAAAAAAAAAAACwEWAiwCwEpALASAAAAAAAAAAAAAD/9k=;" parent="1" vertex="1">
                    <mxGeometry x="390" y="396.5" width="35.52" height="39" as="geometry"/>
                </mxCell>
                <mxCell id="30" style="edgeStyle=none;shape=flexArrow;html=1;entryX=0;entryY=0.5;entryDx=0;entryDy=0;" parent="1" source="7" target="24" edge="1">
                    <mxGeometry relative="1" as="geometry"/>
                </mxCell>
                <mxCell id="34" style="edgeStyle=none;shape=flexArrow;html=1;entryX=0;entryY=0.5;entryDx=0;entryDy=0;" parent="1" source="7" target="16" edge="1">
                    <mxGeometry relative="1" as="geometry"/>
                </mxCell>
                <mxCell id="7" value="" style="shape=image;verticalLabelPosition=bottom;labelBackgroundColor=default;verticalAlign=top;aspect=fixed;imageAspect=0;image=data:image/png,iVBORw0KGgoAAAANSUhEUgAAAOEAAADhCAMAAAAJbSJIAAAAY1BMVEUEloj///8AkIEAk4UAjn8Amox0t68AkoRhsKb7/v5otq3t9/ba7ettuK83o5efz8m73dmt1tHg8O7C4N17vrbS6uf1+/ofnpGOx8Cj0cux2NM8pZnn9PLL5eJZsKZJqZ6JxL0grIOWAAALjUlEQVR4nM2d2XajOhREhSRHnqcQY8eJ8f9/ZWMwNoNAAlWRroe71n1oi53ShHTOQURsnX5+9+f4loi6kvTj/P15PC3Y7Qvib68P99tWGC2lUUo0pZSRUkuRXOPdF/EpSITr/W4udEbWAmtLKSllev5ecx6FQLjYL4X0g6tgZoaKzZ7QZ8GEq0OcSjkMroIp5W3zjX0iKOFi/6Abi/eEVFLE0GGJI/yN1Wjz6jJ6BoQEER7vKLxCSs7OR8yjQQj3qTZAvEJGpnvEw4UTLg4zqH1vZUPy8PeEp3P2HDzJWTBjGOFiJ/Hds8EodmGLZBDhRTD9AzEGEB4m4SsYA/rqaMJ9MhVfwTh6qzOS8JjqCflyxu3ITcA4wrPmrA99UjoeNRzHEB63U3bQt4z4nIRwtfwDA5/Sy+E2DibcG/YK2KcRNg4l3ABnmFFdYbCNwwh/EqSB11GIZjbsuGMQ4R65xdbH7PfG/csdizBGroFqHkWfI+dkeaMQrq7QNUJ/jScUJvnBE34FHsA0pNIogDB7dfSeU30JD+Bd2sPCAMIBg9GT8AwGzC0MIhQ6RhJC55j88fJt9G/QyJZLHOENvQ8tLAwkFDJFEabwjXZhYSihMKnH/saD8ArfiKrnehZKKMzWjegmTPE7bb0GEQrlRnQSEgBLCwGEHoguQgKgkOXWGUDoRnQQwmfRxzO9ZnkEoTDXEMIN47hCv/aUX5CfN/2LRi8heieT620hiNDxqtFHeKGcGMr3awGIUMi+DVwP4ScF0FSeBkXYuw3vJjxyjgzlikAodPfLVCfhaUY5M6xaCCQUsvPGuJMw5RyKVi1EEqqka1nsIow5fdTcq40ACYXpmlA7CPekixdzYhEK2THb2Al/SBcT8lxrBkpYvpL5EW5JNxOqPliwhEJYh6KV8M6ysNGRwIRm7kv4Rbv9bPyR0R5qWwCOhXAxw7b7UmsuWMP7yqmNYyEkLRTZKGy2BCe09dM24ZrVR9vTOd5Dy+6tTZjQbnhbUx2e0NJIi3DH6qOWFZlAKO/NRpqER14USQuQ4qFu3ko12yVtuLM/7mUaQtXcnzYIf2kWztqAFEKhf3sJWds1IW2RaRRCte0jHHmx7qHEAsghFLIeAlcnbKbusFqlEjYGRI3we1oLWYT1Sa1GyLPQHpNOIqwvTNX/oY3C5uBnE9amtSohz8KOsz7029NbdsLJLeQRVk2sENLWwuYaPIGHlZntTUh7s1edd0O0maa6Or0J5zQLOwO0eYQVE1+Eq+ktZBK+16cXYcwK/e22kDgOK7NbSXhi9dHW28w0Hr7/sCXhgdWY7onoZRKa8kihJBwXkexWn4VUwtfwfxL+sOaZPguphK/jjCch6/xJWQ/aJyEsL/KehKz9jO5N5qUSlq+JBSHrhE31h4ByCeVvhfBMWgxlf8A5l1B9VAhJ701q0wtIJny+Q+X/JQWWuCxkExYRgjkhabl3WUgnvLwIlxNEltjE6jtPFbuNnJAzDI0zXYB4SZJLlYSkDY3TQjphfj70INxR1gq3hXwP50/CLeXnteVOvSHabvilgnBFGe/m7ATkEz4GimBd3Cu3hbyTk1LyKyeknJNKDwujE53wkBNSNqXGJx/5xM7rV3FOeCOs912Bgg1Co5wKe44kJ6RsaPxSym/p8qNP89s1CYLMXvQFZVGyhSWMVsiOS+4zQspEAwSM4gATszVLMCYaa1jCaIUcA2abb8F4sbBFloxW2I3RNiPEn5T+PxZmWogIhFWRPSxhpAJj6uVJnODD0B5ZMlaB765yLfC7X6yFgTO9/BWQLMfab0KqHZYKPX6Qe4FeDjvDEkYpOIbJXAT6nM0aLz9awUH15izACz7WwvA/v4pFyJ7IIv+qKj4Kz4tQH+IDW3bGkVg9TIARpJYC+3bYGRw0SoAHUqm4An7m/Xv/m4Ui44Oed/dElowQ5JESgUxy6gkOGqELZB3D3lhgLcT87aFpar2RJYNFS94JUG9kyWD9ZQHKDv2vFuL6KdZC2GPh5hpHZMlAAUch7GqtPzhooBbAnVYK+h2shWfgKEQFP7siSwYJaGGCerfwuNMeIJyF2Si8Ywi1MyxhgIAWqhvoHf+/tTB7A8bkq5n/1EKh7iKohmipetmZUAEtFGYnIBkBXnfavkJaKOSnQMRD+N1p+wpp4eNUH5JogQTEhi/IkwC8aELvtNE3tgvE/SH0KgZ8F5ZEItqEEmIPgbEWqjQjDI5MbJWdCdECe3ah4owweEGEdlLw6Uw2RYjwAEH15RGk5ysI11vy9xETFTyZykxq1qdku028tj2YM9K39OlBSIpjr0kp4wrcZ1j4iHsRrCDoppypCQwLHwcPIrB+v39jPoToOmqPvYjgx5MX8jnHgWe2PGOEaSnANfkQ4ltdFLH6tNpQVXkQwi3M78IE45etrbkJ4W3m2c4PQnrI/ENuQvREWgzDIu+Jk1JSl5sQX5DSRBE3d62m/pzniDFWiitpwekfluZchPgmi6IDOSEnL6guFyFhuqvkkFJSLhpyERLKwhbB2AUhrxLdSw5CgoUqrhDS03OchIQWdTUff4Ju2k9ImeuiKiF/W9NPSGiwUReDP5v2EjIsLG/dy+NqejftJWS0VwYRloT01+A+QoaFr5yI15UDraTgU32ElBLp5XXYi5C9JPYQMqa5943mi5Cdk9tDyLDwXRL6fTFGfsHoJmRYWImxexPSqs0/2+wkZLRWiXStXG5yj2s6CSkWVuLNK4S8Wt55o12EjFFYvfCrXlCzqtLl6iKk7Ber12FVQngaW1VdhIy2aulztSAD5kjsIKRbWCfkfWCmk5CyFtbS5+qBIkQT7YSUibSePlcnJK6JdkJGS43cq0awD29jYyWkWNhI3GkQ8t6ErYSMF5pmykAzYAsaVFaVjZBiYfMmthWShm/z2bLtU0wEtYKVW4Scr49aCRkWtmPs2mGFpBMbCyFhFFoSrduEpMmmTcj4XoglrcUSGsq5iWoTEiy0VRizBb9SdjatG1KChdY0ZBshpZ+2CAkWtr7X1UUYfRPm0yYhwUJ7rLI9RHuJDwRrEuIt7MjwtBMSPmPZIGSMQnsQaEeYPb7+bYMQ/yfs+jR3VyLBAT0U6/tF/Al75xfkO1MlNuhAyBohfBR216voTgYBl9qvEeIt7C6X2k24IhLCLTTdeeQ9CT3Yc6kqIdzCvqIxfSlL0A+sVwnR35rQfQVve5OydkDECiHawvb3Y70JkZ8grxCCR6Hsj3p0JNbhvmCtXusV2ELpCCdzpQ7ClsU3IXYUugCdhNEShPjK9sYeBDkB3YQoxBch1ELprhjjkeCK6aglITRwxwPQhzCKEf2qDP9AWti52x5KGJ0BiE9C5CjUXulwfmnYgHep57cSgDfp2i9H3jPRPPwCvCAEXqRrz3rMvqn0RxH4xy8C52EHlcr4Vmj0LhZwuob9+XNC2OuKSbwL/gwohxA2peZFvlEXsI6t6FjC6CBDKtxfsq4OOqT0nGOGE0bHJOARZ6svDJ8RgwrDDSzasQnoqQYzj+r5sFIxQ8uSBPVUgNTgiu+DC6+stn9Zk1Kmg8s1jSgts/szG9WYry6MKZ5zmk+S/d3SCANHEmb7ZzF9Vx0+AkMIp++qSt9G1hcZXeJptdHTMSp5HV2iOKCI1fE2EaPS14BC6EFluta3Cfpq5l9QoffAQmRrto9Kp4GF7INLra2Xklf9RclbcIlwQDG5VSw5a4fRS0DlXki5vMUlgXdWJcUZUlATVRDwdymRs47RKeprLriSh6vdVkMglZTJHVcbHFrUcXVJQ500Um+/gdXRwISZTvuNGGulkjqJL9DK7hGe8KH1ZS6kNEMwVdY11e2CrJhdikH40M/+nhrtgamUkVnPjA/Iyn1VsQhzHT93m+0sA5Wm8c1UlYNJbWbX5XmP7pg1UQkLndaf37t4k163zwv8WZLOP+6778+vH5JvVf0DS+iP24CMBLgAAAAASUVORK5CYII=;" parent="1" vertex="1">
                    <mxGeometry x="425.52" y="396.5" width="40" height="40" as="geometry"/>
                </mxCell>
                <mxCell id="16" value="" style="image;html=1;image=img/lib/clip_art/computers/Database_128x128.png" parent="1" vertex="1">
                    <mxGeometry x="630" y="120" width="110" height="140" as="geometry"/>
                </mxCell>
                <mxCell id="18" value="" style="image;html=1;image=img/lib/clip_art/computers/Database_128x128.png" parent="1" vertex="1">
                    <mxGeometry x="610" y="430" width="120" height="137" as="geometry"/>
                </mxCell>
                <mxCell id="19" value="" style="shape=image;verticalLabelPosition=bottom;labelBackgroundColor=default;verticalAlign=top;aspect=fixed;imageAspect=0;image=data:image/png,iVBORw0KGgoAAAANSUhEUgAAANoAAADnCAMAAABPJ7iaAAAAkFBMVEX/ZgD/////YwD/h0P/YQD/XQD/nmj/6uL/cxr/+PP/aQD/8+n//Pn/XAD/bwv/9/D/y7j/uJH/div/sIj/gTf/nGv/p3z/18H/697/3sr/zK//ey7/xqf/o3j/i0r/oXL/07n/vZj/llz/p3b/4tH/dB//kVX/jUv/hUf/rYH/upf/bRL/fTD/1Lz/2Mf/6NlCl0pxAAADnElEQVR4nO2d2XbaMBBAZSFRMBhK2ENCQsjGkuT//652SVtySmGGxrXl3vuQxzlzrcU5ZjQyUUZ7PBrE5s/Mbm6bkZLm7XB2JGQ8GI3b2pgqTPZnPPPOHknDWJc0bnWBLx+SUzH9YJyH0g8ytZ53x3J4z8SvFA+5feOPeu1wrpeb2He1nj+dREYykoetS2MucjNL1caCIdvhL6VRF4k0ppvmp9beitVsLJySrY5gNr6r1XLbS8xYOHUyEuGwrRUx/WtuaiPxoKWPeC4L+qyI6RUrWKm2Fc+ddEZ2RLOnu5GHFD+uM9SOval/I25JYn5RPC1jG+p/BqRqKuxEpCbeH0ukJhw1xS6CGmqooYYaaqihhhpqqKGGGmqooYYaaqihhhpqqKGGGmqooYYaaqihhhpqqKGGGmqoofZv1WQFuiGqCWuPUUMNNdRQQw011FBDDTXUUEMNNdRQQw011FA7QIXVZN/8NS1M0pjdUqg5UQulvkottxY4SrU7QchuQ9OUw/hlKdSME3TTWqoGLV1t96VQs5uT00fT2GcX80HUxSRvNWNN/+iynz5qzdKpEC9E21POaunaiJ9G/T2W9V88NZyiY9FPrI+3d/XPov/eC++MRIxzfg+3j2oD+WDnPg2fxIv2mWqlx/rHVkXV0lXz3K6qmvGryqoZOyk6g9zw66IzyA07LzqD/GgUnQAAAAAAAAAAAAAAAAAAAAAUw8e6tv0Kt6Iz+zuc38xH/d4B+tdPG8mtriXFuvnLkRrS7rh2fkFisbj45L2el50gB87NBOXHE/nlruXBXohqj7sXAc5J4SmGt+CGza1kZtpzHyXAiU/VKO49LgVuKDWLopuwpqT0PueMseai2eJJFOdOVNcDlwDFqZNWp+hkVXQUZ/OaYb3aUEOtVKCGWqlADbVSgRpqpQI11EoFaqiVCtRCVFN90doUnawKr/kOWXSyOpIXudprWF+P3bVcbRXWN39jRO3iMpQtuorH96Rqi9B+XzPxm8ysFRedqRo3EHUbbA9CW2kpriZ4bXdrAZqlbg8nf6mfXgRpllX71KdHNsr2/Z0NbHPcw9ntcP31IOvh1gY6ZO9Y531yCB9qfRYAAAAAAAAAAAAAAAAAAMB/Q3hlT0I2ZlDRugVbM8H1uRDi++a+omruzUT1Srr5emSi7izs8qeDuFk3VYsm28qNmx9Mokwtai6Nd7YyOG9GWVWs2RX1Xl3PaxVhfn21O+7xDSMkbD0MJVfpAAAAAElFTkSuQmCC;" parent="1" vertex="1">
                    <mxGeometry x="520" y="259" width="57.57" height="61" as="geometry"/>
                </mxCell>
                <mxCell id="31" style="edgeStyle=none;shape=flexArrow;html=1;" parent="1" source="22" target="18" edge="1">
                    <mxGeometry relative="1" as="geometry"/>
                </mxCell>
                <mxCell id="22" value="" style="shape=image;verticalLabelPosition=bottom;labelBackgroundColor=default;verticalAlign=top;aspect=fixed;imageAspect=0;image=data:image/png,iVBORw0KGgoAAAANSUhEUgAAAN0AAADkCAMAAAArb9FNAAAAwFBMVEX///8zZ5EAAAAuZI8mYI0qYo4XWokrY44fXYslYIwSWIggXov09PQZW4n8/Pzs8PTX19dsbGyZmZl7e3tHR0fk6u/t7e3Ly8tUfJ/i4uIwMDC5ubm/v7+csMRniajc4+qQp72rq6u4xtSNjY2ioqJAQECsvc0+bpZcXFyamprT09NlZWW0tLQ2NjZYf6F8mLMdHR3I096EhIRUVFQSEhKEnrdxkK20w9ImJiaXrMHR2uMbGxsASoBHc5nEz9sQEBA3BWk7AAAZ6UlEQVR4nNVdaWOiPBDWIhRB8Ww96m1r7Wlba6996/7/f/UKmckBAZLYw30+bVcImWQyVyaTQuHgEPQ6t1dPjWW7//D36Ojo+aHfXjbm54Pr09/u2X4Irqet9lEG7lrT+m93Mg2n9cHteXM+nzeb59OzQb1X4X7s3bbesghjaDevv7xrlfrZ+VNjfdF/eP67Y5a79k1rPh3UK/lvhi93rm76sp4+tFtXg15l0FIjjKIx+DLCgk5zmcEtjatB5oroPEkJ2xeNzheQVm9eqHyrPZeT2Gl8B2WAKzXOSUNv/kfjY8+tW5HCytyo02/Lp6vb3bI8rQQhTnv1zm5V3MiWZctcjg4y5Zccf546AQ6N/rS9Nc47Gf3tDeaJLjV6RrRNdaZNwHK66+GphLaLZWvePD8/v5o/tZYXf8Uf182OEqNdx5dKS58/Bwnalk/TUIjDzFROe53B+VwuCXfL8En8u9+6rQeJj5x2pq278OdnNuMqqNyuhdav9GjriQzQzhpW2sVUNAaZo1s/N9DQp1f88D/oaMBzsW8qw1qfpqyy5ddpphg6/AS2VN+qcHx9cavxud5tgsK5oUwLauPH7etiuMNiMdt+nEhHuHfDvvRHjQGuuXHXZ5neFTc2TZ3FBDjZDlfdYtVxXNf1S6VyueT7btXxrO5m8ZHg8B43f+cKrU/p021DgxXXfEtKW1CpVNKJrr3855VsqyiBZZeq3uVmG6Oww9bfTW7XmvTZ5HoJxh+zxfB9ssNw8bpjl1RhUbltxzklGL9OXj6LVc9xHM/zi5+jzXA7TtJZ23i2jDgk0fXuF7WULvdzdAM1Lhqx7m7fR/aOW3y/XC7bdrlUcnfs4vjd1XB7kt1kiPGwu3vZ5ifF2rXiOtXPzawWe7i28qSTR9/0vfsZ/0KPiexM1U6H4Uzs26fnltLYxXWc7maWQeLJe9GRvx014HuXk8fYYHSdLPJ2b7n+Oz8ozOLLUA23kiEIFpdeat/wYyXfKb0sxrI2P+69UvbbxaJddVcfwluv1Qz2jFByNhx9HUpequeA0vKNse9uFfg5pNEu7ihczWKc/9F11F63q8Uh/27wkjN9u1e8CVu2lX4OeRVcm+ydd6+sRhqjsDtkQ1p5yV5BIkreiufvWf64lEqv7PllNnmgqN4ocR/HuTyVhHtPG9y6eewVg+29cPTVum7uG9V7NpbUv5dpsiv4jfLHxtOnrWh3aYMrg/dtb8Pxp0IPbI9NH5UtSQOpFyM86PoGxFmXOPOVT4OJD7tbXbBOzRQGyHlJkPecUKPgFUyRLS41uYrARUapWUbvR218MuE7Lucv3PIl5U4krx0jbkD+e4kjX9QQBwweyvUTVUkrg+W9037VLo/zn3epOsG19yRSJy66wGzmfOxVzd2DuLChTzodwadCV7wtPo6SUxCcU5Ev742Is1CiGM4835RD+1voKmglj5pmqPeSU9eHv4YmAmX3CRzwz3xuym9sQjt3r0Meau0mI+5WmM6xiSrYSYMhtLbSMwHSmhux2dNhTjTKmNwk03kBf10a8ZV1Ca/Pcm0oNZQ/aQdVmMFDSdsQV1mhLkzdIt9EkLYOgqtmNvMSHBeR1QOVhYzaqCIuM5CjD9CSGXHHyEhmEkkK65iqT4VOUeYBtYCODvkL4hJDMxvDAwvxtWr0ekqHbSRPRRaUXgRWhCjnQNB1hgYUtByYvZ4Gy0Kz81VhNePSEwyWBm+mvBquOpi6yddSxxmum3w1Za8E1uRJhWBD10hg4qr7OpFCe0ydjs/8nrnkyTPOIbjm9cOJWfdQYG6+TqQgcDUVavm8WSXdAH8nijQ3eS4dGmli61O5A/qoovWa7w+VFjw3zsN/rnnLxYwxfXAhJ19ipcThYcjsJY8zcOGRjcwGI/R6n3XjELYOvmPqwuZBLwR51KEdv6S2V49fdlsjiYlD9mpmfecCGb+wzRs+mxeaoXlCLOi7faSC86Es1cxAHcdRTv888ticqgTyr9Y+/YMRG38TYxaZns4TWx5hwStK3ZK3qI2Wnb35TpkSwSrC5OW4nrBCzyl1fzj/YGxkJLog076LL0P4EyAv2z0TqQtQZJ7uIVQc8t2P72PMIjP1sgVLnLpT3iYz0uX26NsZs8gFbTI1slMRObPOU2ckMv2FCs/sjepMgUXiUmXA22Ejkw46YyVxtj9g8u4zOhnXCLe8+2OkEErk3dk3qXIKf5g/eVXyCHWBznl1Z/JRXHarr3cPYnCD3DmA4APxWN9wEufkf02GH+1y814rfwkmL12yW7C9tkY7c855CEZWMPhUX++3JuHDykudu2PwBd9wuREWJRGjigl1IITNVKUeXGCT1MBWeUIeOMLl1uAMMTOxRxp8/+KASta3UvkElBNENJsx6kx2S1/2UCa6cB6zlQLYhODUTZE6kux2YjB3uNR/ZOpQPqc5kg4x1yCE2dmfM/2Z+ZJVg2WHeU3eDo7zH7EjKylMBjGCc2o770sdWCqiij0u+a7jhJlX8ow2ddiOfz95fRyf1HY4+diCnyc3NjHWzuKZ+8pMsMqZpWL7nv3yPtt16GT8+Lq5zE81SoXl+hMxBwnxLrXYUSGQHIBnSh3oOwOp4ghC2nbsVSytrTa0DW0091JIduOxlTaJMoBMXZjQyNsqBts/yAyhHWa57kY61EPFdCoR3lDWFsGH1M12yQ4lOHVzSh3kCOh3wgIpdm/ZzmfqUNdUtvZjDZelSXWAR+k8wCqB3ddw6+CczmLBxEfAYF/RG8lXCEBl71sgzoqnbQqYSamDbQTw7sL9uzM0OEPkBdSSKEMsrps10tEDek07PHHB+HH2GmV/j2HDS2r3oTa8YQ55Zz/fvMTlPfGojB+320eO5IqW6OQSOj4ml17V9UPs1N5/pEmpM1kWhEo0YUIoeqEt3VzJWhsvXopO1Xdd13FHNG02N47Mwab5DttLx7btEs0ETyggDuCtnFIbmlqcZJNZvlgzqdsWRIwntlNiKQq200Uey4oYxOBgIuPIs8rO52o4nNyTwfEypgF+AzvslptHEs/UNzRdIaU5WOyGGsjyI2PluHhcBvLUI4IoiAvdklXFbNZx1DAIDplHgrsNc36+LjhjRT8WXeUkZeXdpclv7mi7M57Gry9OieYiKEtksF0Lkx0rMemyOmbqVSYg0Lm74CVJg3GpQdSOo27osAHFL+2mc+LgHsdCVbB4RDLubOUyp9Evi2xWZf4WsFFAiIM42DmvEl50M7wcFItbi18KvEBf+BDuUeb7SzoaFkunGoYyAbcsLtPHBJQAMOOAn0jtYDRsbgUvIk/7vGr3UbAqtonGcCiGXNzbIhkdGBmWrCAMVsOygxzhHnWGCgZC0yfs8BH7nMVyv3eeB3ZXkTPQQiBiZBRyxwkk8MPnZFyAJvQdP1t7Ck3QCIn36J5NRFOJspoKwEIAF9V2rPsiSmJQFbJJAAkAGm6NXyfEQt6RrjMGTJeMyDgbJM6ny1Bu2ScAOQbMl2YipJo+TBAOHAjLDj28BuN1HcA4SzzDUnExro2HUfY3zHBawCAGN04dQ7pCiOUZ0bM+RGhChp/uNhVweyCblVLVc8r8UwW1dYecmaTOTlcIKLmOxGUn5hrp7nWgYss2v2mvlKx0HIvk4rLhaxIGg6AxbNixA3awDknCiq5YQQWU9xx5Sh4OSWszqdRwHSQ7iUIazthxJ+z+8OtQl7qVEnUwsmqcYaXOtL9NW5GoCEEfcMdtbvYQK6jKcky4KsQF1YQmZIgktwvgWIXEHod8+lPOtwPsI1ZwReVYyGAXKwZMYaaTWg0GKfkDGirTmD4oUMvMaC8HuSgnew4FhdrcwRQlFQgo8ySDI2O2Y/qgQMUKsVY0d0oUqaOCQonvcSwSDAFWQdJ3BcaMp7NHeOCtFXXKQqCsylmu+JjaThE+nRCxwLIJ6vAFYMy5QF2L94j0nCBV6jK8TglgtyMhPdKow/xQCWNSkskfyj4m6bYaZ6IVqCizMJ4RH+g0zoSICkjMPwJxqOAJyXq5YqrUYbRHbehwmcanOkWqoFqCna1mQQT5X6jHoUWdokbAUVc9D5CSEwmRgMcYdVUIzPVljIn8CrEVLX2uqM1x1FX1DYZrYs0Cx8aJhrEAP/wtRhx46/DfWvv7qnamk6aHs5uNmSu+1JtES36eVOURBH2uFX1Aqz1PFsJkfKi2DVIoptDlVjTGdsH5SZzHBi1Iio5o7VGmeysikDrVRY0xblE/SccSrTCYovh55QIm54AW1DmTkO6T7Ecd6lExHIWrXOgh+q1LQTbyIAWyILFdx5CGlZDrFupyJs2lFYQxBtOFGUUmPuK1tgA4F0SUks7CgxBcrpLUlCqMCcV9yHJy/FGmgLKTFac65Q1pnWS4VJ8kTl2adZ/eMuQryv6TN1Zwkp8JCdJiTM+GCy9rP03ynMbpPkx5E8yupNpEc6KTouwitHjXQeNwKOw45UboPcXneEDX+M7A8uXUOZ5jAZkyLchwxms8ZcmmYfuT5yYaW9doX/GTl1Dn2AFYWkeJ6hz8r1BmS1njZe04Cc+hf6dBHT3bxHFzKb5LApFdtFPSCt4Rjfek2YmsHSfZc1opI1Xwg7gD8ChJKbeCiYl2SlqBN6LxHpLMkAk0VfImG+MeWvFEesCC24ZfiaOJu5fgofKxMAED3khTjtn6qUFxESANNGPBTmLy7Jg7CU48xE7EMmg8AkHmqH4fNzTy5s4xOrxIVx77HzHQgQw/SLdTAGQzHVKqVNNyMrZrhG4Cj+nuweDk0cIY2BBIMax5AokAGTVQr3jyVS0mRepweeqeGaaTh9JIpA6nrp6pDvhHyGaJqjEmbpOmAqxM/fMOTuxok0gdGmGgyWPFjEQc8caYYop6Cba4c6iz9TiCgZ6ZhMofwrpDAYrFwjLrrNLDMyEUdQJ+IFuPoRlvcAAOrU2oYSA4eDh1kNOXXRz0jB8BxYA7ckr2ESdMajE5BwUJBYVVpMD5MA6OLBph2aVaK4JOULQqMJsha6pRNhgdHcX0DqJSy5z1gAITKv2sC9m44J9S9BPAJck8jI1xcLMzbJi2FIXqXLY9GZ+6vJLRV7xcVTw87iukEUEahknGfJFREdmWMJihExObOkmwSERPMGf0vp3h2qBcNawGRU/Sh9zPFkJpInQ6veYpBdlAhy1mRbsCvpdRdwhZy7ROAs3KsqjI3PE4HqS8ybGfGVh5hIIya6JvnGqG4OyaH0enxrTP1gEegkUzRaFQO2SuDLAJFWDnH9M6j+pAP18egTI38DyWCgldXiuuuhBHBqyJsauUyUONaFhSKAJmuE+AMRcljEpgWTulsuQtA9ZECzll5WGkeJ+KRzhCNVwFtJTTnZquE4YC5I9iGjE6/xOpTASps1/ZHEc4y3HioRjFAteKt3cIrKmo0HGBS4UiBkL0TzoIrYz4Tm6cldDdeNn1VAisqbpUYK++UJNQgKO8ZxEIj8tEDjxc6lh4XfUSho4gNRU1FB7slSw9DDfuW52EurGFsEQ3+A24LyImcGSBPA/JHarWBT218xGv7Y0iZ+8qalVaFrriIKV4k4b6HRNwFwwcCFAd8SotlVgWkzDQGNz/zG8V0/Y2cNCJlpWXB9elqAtvqGbmMMapCOXH0YiSH5fTAq3POcaEa7jbSdwXCSqZN0AQWxP2KZU3FMpMqC24IyXo+3zFUftq7CwcXnyDNlhQn7aID/fcSI1rNgUNovxtf0VbqK3oMWUwoL/mMLonKD0UKcvCab0znS8hXouIZ+QAwBmE+JK6mnIZeYXau+2UbcawhjU547B58ZFxZ12EB7maaPMqT2PUuQLPhfC2j9FlFSuSf1ENiGNWv5+7zCIVUgMGgkeQOqAcLbDvk03B1TjBf66vUE0+H+6GNp1PXErcnfwE7qBq9brjT2lbpI3Fdvb+6eyr8iznc4i8qXT5nNRAA5UHToVa1hgrL5uKk43ONR5JuF3OGjt7SBKDl+dVzvAeQBlv9gTKH1WUAisNfL1Mt9drn3vUU/NiCqF+3sBrgPrL8GpO/kcQOVLBCXIFOqxi/9JTuOHIZNyaNjImz3uUNhgEcp4RVpeIgUC5gp1BNRHGFltnKWb7vWH1/bgqz4MQIZJSjr/l1kin44oaNsK6NU+mbOXWZpVD9O8UcJZBHRg5YGzm1WtlKyJ+qyeNdrDr67ZGNSwp5xdmK2eiQN00g7pAZ/JoweNC/GJYtPZqn573gl6ESVFjGtFceK5dLFuvaQIay0CgWJE/BUoBOCtzvJmBGbeNMHekZtvhRThY/9LAKsOklCF4x767il1rFtQ+Fpv7/5CLYP2nxAHh1+f88WYmSvyqZGw6IEIX9xlNLiiAjTpu1+3Yd9zPl81k+P4+Wb10rbCEklekZjZEOdOcdvF+iPQwOq0DUIhfy0tvHML7EnCf0cDohOpCMZPeOg7v4SvZ5Fo9y2NmGsZb0qKcKNrhz1Rr08fldBsjjt7DNsEu4UDo37+gsAVqVbkrkvByyfQANUwe6LwgrToZNhk32amVwNVW90wL/sVTcCS0XXKlQuh9rukBapw8mAL5TSr0HpeeQNoNc435oCG4svrU0TMPctJKnlBQid4SnHUFLAgJtLNlexwOhmk5Lb4WLo6vWNxwQ4qmfo1Uevo0MXdW2d05DrzPXqG3DN9lEEd7DJ0NkhYi0wVEiz+3bmMWtHDLFFbq0C/mjtS9V6tueSdDLGsnScp+1XHvJ1uxuNOAjXP2/aEgeDDkFK/kwOmCSP42k76BcEMYdaz1Y+42lYbj1/fVaHQ/ellNhrOPRNWqCqdy8+LT8BgqjYVInlVEkR/ysOzC4hl/1Zhl41jqnYALUXqXtC7BFaPtb27wHWcZRc+ElywWveluJ6IuJJbRY7cqPE5tC/2K276Sg8AuGZZ3KA68wxj/fmezZ6FhFY5BP/HmybBYFU5J+Mxw0qcuURkqiYpwrbfShdmoFfDKvx1zQpdLRd5dFfVKbbu5dEQKSpfcEtHX5k5OJbZgcMPTJrlDWQqcbGqvnXSdsmWXPSotQ8n6wF4YL1ZFL3FTqLfiGzWgLqPoXXB9Jd40f7TMuWyZAXmTCY2PyWg0ZGwWhjZwW3c2cqt+Ui26RTFooFbrQaAOiq83buus58Hp9Vmz0T+KQ+OyeKqmUwLzEfUYvXjsJq8stp1iXCQYlOInL4J90b+4uEgSBUgJsKeAXuUuvaMeppYKqPAq7KpfihSudVz2HXvFzVtgSB0a0es0kiielJkSQGVR0lcKLiQ/BePZcDW673ZHL++z2LYGUKcbWjmGZZs6YdgNXdoKnFPajilIzi3Iz9GKHjekDnMYM0nLCDNmglk3PFOfCkI4v+lwkAypEwt4y9AaqG8ux8Hxe6sTNVMZxGMojezmSQDOkDqxgHcM63la6FQVwjQ93N1JP9NM53qM6xtSBwcYyUpYtu/6b/27i3Xj6fysbrDSkojHTDhwIcwbKX/UqTdpSh1kFhDTwpwF0zGIE4U4E4OY/db0mo1npT4VdqIMqXP4If4G4kTPiSESo0k19Nxfr9cXyT0oM+os/jaOP6k93A+dxHJ7A0nZTJCRAjPqMGYUmZOZ4YS9cC2w2ZIpuV5bTk0KdbrV5sAzj5pQyjI1Reeq0X57u7hpdsTV3YlvIWRQp2tFwxEEsrexjPfoZ9B7Sqeqfx7w1Gl6QELx9V+irhDu9cpEz/o8DCdF/yTzrevfge9K7HnVTMzvwWln+nTT7j/8fX7rrxvNM+GuY6BO94QhUXcklK8UU/hxRF0jmlCXOjiJQiSzeirmT+KBUacZ8RPUnaZ3+lOIfDNi7mpGay1e3enkYv4g2ow6zUi7zas7najJD2LNqNPcJREvF1bxk38eka4gAlSTOlB34N0pnRn5cdywrmke7RW8O+Xc/J9Fg7GVJnVw2CErAeXX8cSoUy/eEgFqMmWlRv065kzg6d1XjMnHJPrxfQ7QXogsDZOL2nDPnAQzs4+U/xqmTBXrXWUmXj6VWevg9xCF/EgJDb30fTgLCpttiQKEh4EBZyRqHaKEsjPXh6zMSe/AfdGiTvB/VE8R/jR6nOupQ5zo/3xLNPMLcMqFDXTOnaNCEOqHHB44baWT5IeJOHcHEHfIQNg5SPfUKWYhKoSMukW/iztmR+kENMXbCA9UZIKDp1UzOoIjeAhfsuXzHWiZOXiQ7kA8hO/aRNgf0f47yRfUcBJQZJLt7cMM94WIjBWSF6JxRwEGVUggX5p3cRDocTJP3dDEiiOH7JiHCDjWUq8bANuu5CB1MtnucBDGa2F/SvkGBozUkqSZw4xDEzSYwlOOtaMuXx9wPIxgylaOstCEMyTBIcdUCHossqJaEw4PNw0OnjGJ3AOxorhBidWalofs2wFajLvUNB7m9pEUqm/dMd8fHY41ldwEPG9KPNfD3B9hCPsIebgqk1cdcu8d/f21biuCM6QLm9yV52PBHTJ1h7lxx6HDuddBHnUunuOtHL46IOBFX+LgTWzN0cMx639i1RVgqwQzToYZtnTJpunU039BYEboCeGD95TZs3yHnfu5PnTvgENbWEKvsqoWYYo/i1rCjuuBBthjICYV3cg5uRerkhz7njXhL2iGElJqVfp+H/3YVHys/Oj8gl1yq07xZSEeIodyBn8PNAKdAMS2+JMp49lwMpkMX5NnBfGswD+x6CKk30gUB01WPmS3LgbV0nvX7X+QODYl8ZMpAs5YlvK/w5YRaJbqPEVYdLiCEet/RaBQsLMbTwmu602Fkx3/hp4TwRPQwgODp/VBM5aam8m8h4uMFGqGt4Pd8MnDWS5t7X+Wth0qN5m0zQ87QpSPeto5z/78n9JwaejN4yWsju6eBv+mJJHidNBstB/+Hj2/rRvN2/rXK7f/AREaECqxGAxtAAAAAElFTkSuQmCC;" parent="1" vertex="1">
                    <mxGeometry x="644.7" y="160" width="75.61" height="78" as="geometry"/>
                </mxCell>
                <mxCell id="24" value="" style="shape=image;verticalLabelPosition=bottom;labelBackgroundColor=default;verticalAlign=top;aspect=fixed;imageAspect=0;image=data:image/png,iVBORw0KGgoAAAANSUhEUgAAAYUAAACCCAMAAACejyR2AAAA/FBMVEX///9jZGakHhHYLCChHRBcXV+tIRVfYGJ6DACtra5XWFr5+fm8vL1aW12xTUd0dHatPzejFgPf3+CfAADUKx/u7u7NKR3FJxvVAADXJhi+JRnFxcbWGAC/JRmyIhXXJBaGEQdqa23trarXHgyLjI3Q0NGVlpfp6el/gIHcSUD76unkfHempqfmh4KBgoOpqqvMkIzeWVLwurf55OP10c/ok4/gZV7lgXycnJ31z824X1nar6zq0tDkxcPpmJTcRz7aOi/gYlzwuLbro6DEfXnib2l9DQBuBgC4QTm9T0mSFQvQmJTHhH/cUUnXj4rZf3mwFgCpLCC2VlC9amW5J2syAAAR7klEQVR4nO1deV/ayhpmMaQEYsqmQaI07KKi4lJsPUprPVv13ttzvv93uUlYMsv7zkwwaK15/ujvV0gmYZ5593fGVCpBggQJEiRYAwpXdweXp6f3F+PhS7/KW8Wwddm2nWazXm+2Hfv25uylX+jtYdg6dZxmNkS9bd/eJRLxjCiMLx2nnmVRd5zLq5d+t7eC86M6JQUkmk71ItFMa8fw7tZuIxTMNZPzOC689Gv+0hjfQ5qI10zto/OXftVfFWcXpCbat9sMH3Xi/217v5UIRPz4+khpouZ94W5qh6TUHfvxkqTF++AgEYhYcf2R00S25w2dH8w+9pyj/dYwdcpc0rSnie8aFwotyCDXb2ff7TuOc9ryJ/va5i9q2/e/jO/abXRr7Ge1RqP8HM++wgyyM55dcN6ar/cD0H31BOLmVxCIom6YptGhjF2t43+mF9f86CGl+5l1XqevLTjYhW37y3jNL7p2TIy0D80lxKGm68GHxuE6nzz+4rB+UIi2PaWN7x3Ggi8QTvZ1B3PdGQkeDaPww4E+/9BYm1Y6u6iiEbKnZqpH7KweiEOJtnP6ioM5K53mZry8YCatd9by0ALjlzIL2zmATG6hJbgp63tSdY66V4LCcsLT5tIKFLXlh+4annn+sSlY1s17fE17AoTakZlAvM5grh+yoOUXH+ZDFvS4f5TnlzrCFX3fGl+dnaGPPT8S3BxkN15hMNc3n5WFc4l292Wh7fhoTk8PLu6+Eo8vnJ1ftW6O7qfi+33f9bUJxHOyIPJLgVVdb7bb9sfZrTeXU8f2yWnjXhUpEK8smANZWItduLq3ITGoB0An1A7Uy9BuIpds733IVYHPm3b2FQVzIAvx+0jDmywrBnVf8zSz0/3Hx/2p7xiBwUP90b/9og1SsLWTy+U+vPvj7x3o27Z9+lqCOZCFuOOF8RfWxaw7zvRj63y41HeF4Xnr6BYwGk7L+xYShOr2Xi4XsPDu3R+/Z7YggXDar8N3hVnoa/PYefL0J5xdZNnwrOk5lODs+DV/1nI0C6kxHzYHYrBkwScCE4jHV2CqYRZSfcvQNIP8ZDUUxqd8pOWcCnzJ60smddr+mHpkZGEhBiQLHmCBqDvNu6f+jHUDYcGzDcV846mLaOiJAa9MAh0jALvynRbN4xZBAcWCh7/3IIFwbn9yQ42yEAOOwPDMkZrMc4YGcpTqbo4BxYKHDUAg2vcx/7SYsT4WhlMwCdq8lN/6EWIPEAOQhXd/fOB4mJWMfl6sj4V7eCrbCkoasMaBHOxleBJYFkArXf8z1p8WO9bHAmtSF7JwIL/1BpMFXh+xLIAGOrv3PtafFjvWx8JfSLTrSD34IUaCD04pfRCLgX9LpvRmWdgE3RVPOzQlOc+zqjhVxAjEB7EYeHps4y2zUMpsw9NoHwlc4MKNLc/XbXHxAiIGAQcZRRZq+c5o0qU+6jeOe51R5xBKIdS6+d7AdV2rMylGSDH0G4cdy7tr0Msvey4wFoA3IlAuToKRRoLneyxs5ODl2bY/IvJwdiEsPhCzu0uw8DuY0AvY8jlQZKFhaLquGdZyiZQPXcP0PvM/ZQvwtbxl+NcHyTYvwDVGRZXoqjzRgiH9u7xRDTff9z9GWCj6T9CNATRytxeMlJ6PpPVgsjwWMh4PsDy07fp965wavXDdOqiKS5q0kMwF4sPfu8j127kZB2osLArwenr2Wl3LCFPLTB9EuUN+N7vNNHp9ySMalqEzt2nGqIux0Ji/kWZxIxVddiTdcKGOmYAFj4cMMklNx7anp/cHRx4O7k+nto12A9SDyk/2kW3Oq27ncruIGGR3MwsO1FgI58Gf8DI7YUbYotIfcZM5n4gJ19ZFoOsa8F2Dfg1ioRA+u6g0kpluYCz4POzBiimY32bbg79tCp1/u3375aJ1NSykvihUeOb87BAcKLHQJX6Y3x7ELdrlTBzDHAQXafw8zFHrgDMX8GD2whFDFsI30gfUUIfoSB6hGAseD5hiwhEsfzv7eHA3PlskgUQdSRQ8c0ByoMRCkViOtZHJ/UBtnl6uWfx35Dz0EJJ1lDp/monnQBXPNKm7eygJvmAxLhbBQiAQO5jqAObfdm4vL75eDSnDccb3qYIIzUEkFojfbLFKPz3XU56mEs6mf50F2dKiYOaY+5fTeAzXnXvCVZBmbDnNgi8QuGKao+kt//qpv/yhX7Kvoo8YVbQaC+CvC3RNVzwFwYy5vHHIK5Mgrf5L+SS7+3gWBB7TQgoOxud4CvpGQR9xqig+FtL+RWWV2dRddg1FIEHGQl8+lEH6rAALMsXEt0WGUNBHgCqKjYWg9Fvj3FPNXDjt5Ke0MV16nEqQsDCSKET/YtI0gSxILHXbfsSqD1OZPgJV0RyVz6uz4MVkpuEGwalFTYHuhWrHjW4j39OZ6MGkgguF5avMAiuM3stp7CqgFgHCwkwg0LmsO84FpJWOxPoIU0VzEr5LScBYMMzOcX6eIJhQlxiDUPL7xxplMKimCZedJdPQXMv1pAha12IWetQtpjE4LBYPR/RIFAvfK/i0CC112+b3lp8L9RGuigIOSr/JSYBZMC1Cx1Lr0LTK7P3kAEQb1zFt0HWj05iZ735jAEQeYhbI6013GZx4QTkxAtWy8SCgQWyp/Q1rtIXL4vqouitQRZ5JqDwolc8hFmjn2yW/4Td2FEg/Puy8rtE6xOiRHlR5wGkrIQukcjOOyad3wzCG6V767YeYB4Gl9hTTwXU40kEbu1CsijIbpX9FSQUhC7pO/RzSxrIpBf4KbfFhh1IWOptz4xxPIQtdQQY8b2I7f76XxDyIBeJx0St8hekjTxUJOcjsVaeKm3wAWaD5c2UkUDprIQyUaYZCiTLzXCELjZAFnRtJsAvuW0k0TTKBqAdTWED0kVgVLYZu26L2J5wFjU7JEHkmDclSUDTMLQNt0SG5LNN2Q5kFQM/2G8Uu8PH4S1tiOlUsNaiP4CCZGDYUs+ai8zsKCwajO0jNgo8SKqWZdi6QQ5pw5rtLKSWxRgov1TuK3WLj6SxXLdHdEkvtTIGEt8wcMMw6R9KXZVhg1zux58lA86YpgqzZbHalxiTFyIuyddbTSnWl+7B0KVu4EZJ9PiTitbGxw0iXQj8SwwKbhSB0gXAzQegSBaUZwr/X+VrNHAXSgIs9VeodTX3h9OK4cKLMnEqyT41RqKyk0I9Es8Dqo9RkOVOS8vxy3k1/5lzBkCGI7KmEhQkdYOim6fYaZYFMcP1IcsWEleVIDmSqCCx170bMI+kj9utwOrViWYTlOL5hIIMFgQiRl0XLYKRnofgoj5X//wLUucSrkQpERHOwwF7UbB63baNArlZDhOWFvq9KOlaiTQgWVGsDs3kdMNGia0Y6DyqnTXBhP8VSb0nMAZKe2lHqRyJZ4EUhWkZuOZ3EoCaukKgJl7BAOV3084I+Ao6F0h5ocBUsNVjRl3GAsBeIX0QWeBXejc6Cn2AmvB9D1KABxsRwlaeM15l0g01uzfqREMdHbqm5G8W3oJpsrgKjaiTu24a8xsbNSYd2kURuJaHupTtty1w9g+SB1Xt+ZttPIYCzI1NM9LRKxAdzc8PborGgHfPfRmfBL1SToZ6IhUh7//uuoCBlWrR5mNUX0FUqSYUGDO5sb21t7+5JkkWIKiKJjsaCyTscK7Dgq7W1sAD16YTQ6TRJ2I+E2dttqaUOIL4CIZnWYBFZ4L2N6BopCNJUWYiikYLrR1xvYHgtFXCS/UhYZCy11GKg47Jy9mQWIlpn3TOU/iCkdRa27UU+gaE8SWMCoZF71KmKJx4IyCy1gANExqp7HLVPZoGMllxLjk6DnUhB6BzFUyWpm1hA6wHzKK4fCVNM0hACpACjFRztySyQUVuEQynINS46dm2gHLXRqHUPR7rBlf+JjBVf/ccbVmWWmh9JURXFxULKJZaarDU7RF8xg0FYnehnwpSLrJUgQn+oBwMvrkURCCzfBKii2Fgg+3l5RxYFoicYkB2pK53MU8unSfeBkDusHwlrg1G11CqeKYvKiXS+JCyQTpLGf42hE3NmGwfZ/0f0wqD9SE+x1LhnKqKw8o98viQsFMC0pxQkeTFUeUToE4OERWlRI8yKigkLxcViVFKQBCkLlOsv9DopkFY9hoqnp3uKk0Ok1kf8AiPM/m2K+i9WCCEwXSYxKZX31/Bbo78BZIGaK64fGAXdTAfdFqX6nyp6vqlmcP00AQi5M4gHnVTQJslMoFywmBpSTBgHsupn6T9q0yVjgSo26uAmBX9Ki8UGteLLsXbCLLqXDMhBIKTVJF/v7JOIBoFAcMsb4UClEaP9+FVCwOwHylho0PMJaZeyvyfUpPOadFeY9qSusNDx5Ro06VQX4xX/938r5oG2vPndWF4EmxHFylvdmSocZShlgTj/158XM8+Jw8JNoRormfoQ0yE5itQhSe7uYXeUUj4S2UBSuMm2BU48sV5hXbOT87/P7W2DAiNtxAj5rdvyA/TkLDA1X5OuMdaKbtgpShJ0SKsc3ezMN5vXIncLU5sXdGOw7MDoH1PxgknY76uso6Q2fHWDVZux9hh5Iwal6+r7MbCQmjCJVc0c5Lv9Wq3W7+YHZOs8HaC5zDzrpuZaA8s1I3fOD9gODM3qHR5OOi4TO2vhKhgTJylI+kmjbgKV1ojY0eJhgdlFkg6q7oamaWxSjTl1DcrH4pt1BSxMNO5yXdO4/Y5kyuq0GWXiIvSFbUmqPoCpqT45gxGA21GFgOnei21HldK2OjrGYzfqP7kNZgaZOYDI3H56HikVZRpMxnDHtruwo1JsotbAJt9o/aSGVRUmN6BjaKp7G3GxoEYDn7fDd+tHYyGFHyAQvj3lKG+WoBmRWmqsb8PHzgo9YdWdyJ0wAhZSfdmuc09TA31yse06LwpKzrOXp0+D3izBGkZuqWHFVJVxANE3vynaCQwiFlKFgVgrsE0Qc3QF/SuRTmDoW0JC2RMggk4YcEK3VgghZByAJYelBox2Ggm/TYZCXtQBAeYWfNT4AC286dANp3GpzgijTiXFizpe+efytvNOGFDTK7TBUP15klQr/BDipmgn88iOte53EB50oyOowzVcUIq86Kucyi+/Cn39MB9r0qn0wsSEu1WNDieHi/oCaDGV+sJ2t6rVbHVrWyw6SB2V8qVUWFgsPV3YszJDuQPs+De1juTgNv5sqWV36UIpkQ7OwpjwRzrU8nwHhmZAjw+rPEhsrGCpN+b/iDiAzQE9tNKJbUU/AtUNIO8JoJa3zOWJbf5BDPqoqHBjt5cmTmwzDSs/F55aQJBGa5RjwRt1ey48Eg2y1oZsK5BaahmkqigKC6n+xLJG6n8o0D+9cGS5ljXoHBZFOzmYpzQmHcu7bdA5pv5iZHFkWRNmJss9y8XfyD8HcQCMRIKpeG7kkE76lfvCEGcKCut+9pM81weu7ow1wkRtg1mMpqKKEhaA85FWKxRAHCiqooQFsM6GJO0iNaziqgg9H+nTS8/GSwHrhMFiY1VLjeQ4RHqtVPnJ/wrG+iCoOSPNdSqKCS5AiyPryo9X8SeS1oJrUQcGJhCynGk0cxCgVHl46al4SVwLD+ZZwVIj5kByPNKntysIM5xUVjkgCQkhkLy1jAOllrBfG8NvEh7g5c3PLXyhrCuv8u9bl4M5ht8zwg49bHcz5THB8Z649lmqZE7erGcE4PN7CQ9IFWInN99dCHVSSlXRn59//j9Z+Ly4/lemmLA9CR5g0yFURaXKPyrHRr45DE9KMsWkfkCSpA2jUvmWmAMMKyomDrKDOzPfE1UkgkwxKRyQJCk/lyqbiSqSovBdppg2kIMzZhwknmlM+O0fqaVGFNPiD05hYlBKVFEEnD1ILTXgMck4eC8/Vj4BhYLUUrMek5gDTxUliYpVIA8hlptHqluSLZxJkLw6ht9/yCx1Zs9DLiPOW79PguSn4bdPEtdVhkqSM40D0phaAO/Oh0QVxYPC582VeEjydTHjWlKFADn4lATJcaMgs9Q0KpWHJEheC5QtdRIkrxXDk4pcIEqVH0mQvGbIYuqkmv88EMXUSfnm+TA8gfsFPA6S6OA5ASgmzy1KOHhu0FWIJEp+KZw9/Kh4PlPJ/+dTEiW/HM4+n3z79vD5OqEgQYIECRIkeDL+Dx7r93bj/dKVAAAAAElFTkSuQmCC;" parent="1" vertex="1">
                    <mxGeometry x="600" y="475.11" width="140" height="46.79" as="geometry"/>
                </mxCell>
                <mxCell id="37" value="LINK" style="edgeStyle=none;shape=flexArrow;html=1;" parent="1" source="35" target="16" edge="1">
                    <mxGeometry relative="1" as="geometry"/>
                </mxCell>
                <mxCell id="35" value="" style="whiteSpace=wrap;html=1;shape=mxgraph.basic.cloud_callout" parent="1" vertex="1">
                    <mxGeometry x="337" y="40" width="183" height="150" as="geometry"/>
                </mxCell>
                <mxCell id="40" style="edgeStyle=none;shape=flexArrow;html=1;entryX=0.394;entryY=0.001;entryDx=0;entryDy=0;entryPerimeter=0;" parent="1" source="36" target="17" edge="1">
                    <mxGeometry relative="1" as="geometry"/>
                </mxCell>
                <mxCell id="36" value="" style="shape=image;verticalLabelPosition=bottom;labelBackgroundColor=default;verticalAlign=top;aspect=fixed;imageAspect=0;image=data:image/png,iVBORw0KGgoAAAANSUhEUgAAASIAAACuCAMAAAClZfCTAAAAz1BMVEX///8lLz7/mQD/lwD/kgD/lQD/lAD/kQAAEikfKjoAFywAFCrd3uAhLDsOHTAZJTarrrIRHzIACCQWIzXW19nt7u/FxsliZ3AHGi4vOEa+wMMABiMAACH///1JUFu3ub2cn6SKjpQ5QU5XXWf29vd/g4pscXmTlpxCSVXMztHk5ef/1qv/69b/5cr/3br/8uT/+fD/qD7/zpz/sVn/nhn/9er/vXajpqr/tmT/4MH/woL/rU7/uGmBhYxeZG1TWWP/yZH/qUH/oy3/0KQAABqKrtWdAAAUuUlEQVR4nO1diVLiShQVCCQhrAEUQRYRENlFBhQ3xPn/b3pJINL39hoUcXycqqmxhCTdJ7fv3u3JyRFfhUK+Nr9utdtnZ2ft1nM9c5poHnpIwdE9nT+3Xxsh0ww1qmetei3/RZPo1p6rRdsqZnNpB6bzL5dNxY3yeXue/5onfAcKmbZpx7POBJIeTDOdLRp2o13/5CQKtXbITqXNEAPJdNYwWzf8i7uZLUpdlcc1b2r+BbXTgtIIE6XtQ7hjaWaqziyS7ElYqbOM2rNodOsdo8i8MfEEI1TnSGv+bzH1gfhFW/7Aa8PaXhK3L+VXFKo28ZC/dfaXnotF5kv2YaaMaib4mmtmOkZWSI/PUirFHtl1FnzPYn+LQK0M72xnpKOspsFUG6zvXBo5+SzMYvFa+jSA7rOVEhIPkDpnrWdEUciSPbSBnpgMya44NeAFHcZX0mgY/FmYAqWBUWhfKBBPju2C8QpO4/BLxZr4qQkb39aQadI2EKJQml7MLVtlJWxmUS6pMlS7SMvvh2CdUbdpWvArjAkAzKnXnZ1LRopITeGVWWioitAaZUW1ffM3MEHu8F6oG1XRwomLn9umXoxJ8w5Hil6CgWbYZZtiPrJ1NYrooSohRQkJFgsjIXwuY21LSL2Gl5hVxFA2IEOhtOSd+MBaUxUGXhYJqEzpdQAnZDBuKSYViSmSgWYo8ETMKzWKztUVHISN3UN0J7EyqqXoO4pJbV7AbyNCXwWrgTPFz1CUNJ2goxiPx4vFVI7nTWJBP7lEaycremyLMSMxqTfQZCbPwaf1OH2/kJlzgo6ylXP+t23HUUVz2ZUiM2tdhM6e57XS6c1pqZa5bjcurByLJguZdUqditYN680mTdFAkSrKAW+8e0HdzSxevF7XEr5Ob3bztboTuBEBxC4UmTnLepnTAfHNdciiVzp6jycniKKUwIgXKK/II1VkhTtwBNCLesXDM41qjRVkFEqtnJXbkaJk1mhcc7230yotyRbyvZBxFBnxUpFFUVHgzDUhqckc+eENZjzXEPjON62iF0zIXDcfa4qSOaMzF4fnmTheG+Yr/Aaed459IxdYb20ueOZfgbz3dIv88AUJUVEy+WamYeRMhajQg2tKzXj6UmxwXSRMzNEFXBhNFJgKIooO00KzA9M1EKnxU+KzAvIgcgricfNcVcgteMj8tYwXSTy1QQIpG8pKXyHPhauMmgyvyIXFz1E04PspgzlAD0IeEAdE4kY5d5JB+shEYQgaKv54C2z8mLIBgAQFqhGkBEUqbe/ooKVWhB93kdbkKiPSgJOSl+NmcZCeg3kE5EEUeTf5DpSQGGFt0xAZZgKEjTbbxAXYAGyBXM0LUvJRkkHVUO0JyIfEygi5d9xQmliQqRKpwVK8RQ89XEglig75ovgtuBS5uCcneThYnm+WJ1670SV55ckdinrhq0GaTRzq7R3IO6E4SCIpY9+FyJskk2CGPCNYg6rIBt4GGtSBKUKuDxWDIJXBEQrCAjmKg1QlPI8c3hdlrRFFB15o2Hik0cdotBxlRPigbiBH+JG8SBaqInRbtNBk2ct94wzarDhSr024INjKiFQsrpyRCo6dHkCqyIZfwsk844vmuiOe0UrCsTmikFkqItNpblKJ9HnYigT6pHh548qCKMXwDajDDLWBQ1/kYFusgJtQLJ6YkZ4z26mB7jO2o1TOy961Iv0lQBRQFKFAgamMiBmtPyd+QRkADzCANjDvuEQhCof3D0wRpTpgEp7lLpPptLWUkfaKJQFQ2SSxjcAugSOLjQPKERoNTRFaiTZ9C1L1GE18U1YMCt8LTBW5oBMHZvxwzpGUImRe4rQyIgzYpkRAhr9pRlrtDCykOE0ioxgY73CzBnuGlCLkOTH8OMIN8j8lKhMmo5kBLu4iHcflGalw0+iopcG+GnKKnkEYR5WSwKrw80OkFJQpBmDkx/QMcWbWQ7KYah2gs05OEfJ1L0Sf+zkNUtnQaTVYCme2nHRRTthH2jKfAzTJKKKZr9Vb7atOo9HoXLVb15lSnjAPcopOJMqICOw/jDOpwOilCfO97ErSNbOkEnILF1a89YVqqVl67lxYRbeN0kwmzaSZTudSRcMuVluZG8r4cChCfh6eMTHhrQ9ISBHtJwBFQ6/cNdgFgzXScaPNrKoFRunMiOfYTzLTKctutDOJmswvwixS6pcQmK2BJ2nFfgJcubx0SZeqYUGWisbLzm2gPuZmXNJHk0yncCMhiyLUn2DA10em07Zu4pxg3kIqFnpaVLeFD6rciOG2gc4/wVIml9qlRYQZmMPqMVK/ZDptG2yQRgvLCfDX2QGKh1N5F5/D0uuOnkCiIxbTYBRBC4SUEZlOI9xkYnFiq14W3A0gn1JoJzOLuesd1FK9vGMfFpsiWCtCKUIy8UG8UNKxgRkUqIqEPaMFRuMBjWTWUK3DfuCMU/jblSJUOQUlVjI5RqoVUuHAm4Kqiri/xhFgW6kvMZsKttyqwfpMFSiCtSKgjAiLmEwSvydlBabVQHlT1BjhodBWIilpvARYbdVgTdcqFMGIAWTAWiCzvwWZOYQfgHsxU3QQ3bbSPoS0KW/02OCFw5CZzuWy2VQ2m8s5fmQwimAKDHhGRJALhYUwg0C8YMGAU3WCKNTPDWZfHZygtBV+g0uW4+7YxlSnfVmvz+fz+vWlE42kbauYo5pnuBTBmg4RMpBJSb7KIXOZoLipXIvOX55LZSkp6dDdgOVv5eyrDHWxE7ldn7mdgkoUwdo/oYyIdBpKHpLSQkaqoE0gSM9Hot4pi3e2mKaKPqK7Mk37ku+BFkq4lsimqAkoIpQRmU6DrTWkziHSajAXbgTzaAqZqzJ+qSTS3O6eLepU93PxSuyio4oWT1ZB/oZQRkSwiTP/hOUi0vOgaYbfsMRFs9a241zFZEhtf5PytAxZsTehRhHMNn/EYqTdwtqSVDrWx3sCdbsdq/WnrZzFliW6UoAxx0JkScvhihTB9fGhQsj2ctwnQ8rLVnuBEpmw6ViImxZ7q2NRVpXEJToFg6FIEUzffOgWMp2G00IFVloNUM1LFakh07Do9SZri8S75pI5uTZELaFcikAG40O3vNKZ/S2IsOWDDJB7km5Yk6B0Tm88ocqWgmmE1GrheUWKoIPtKyPigXT1iDSWfpUDGFCq9BsY15SPI4lo8K4AQUvvB9BmFb73BZqxNsqI5A33lECJ8dNqpCoQpIqUcYqLkpKVhr6uZFIVctdrAFO0UUZEIolRLiP9iY1HANIqX9JaVcIc2SK5wLvmlJY62rvIp+iUXJEbASCqqlR3xwkQvM3rAr6DakwlBt7lhdPAcBLIK+L3hfOfIAhzwAtY79QlOGCFEkRCcuOwkFl/WapIEXgzhHAnOO6nUNKGqDldQBGoFXkDAd1pDBeHlJn1jcnAme522A2oSUzojmLHUckxQ1vjBJIH3oA3PzKdxlK9pM/ljRw4YUpCrgDU/iPcZo1tvgpFePOG4B2AWpFnOIhFmmOKBEGq58VCVSQfnRLUOlbXoChSWGhY2YnEFBR3XM+IsOBsDUAqI5dTsmnmy7YtIM9O6AxSG+vlFoPqdRK9A/AKHE7I7jT26yCXvpv7L8IbfA2QZye8L1qUKvkqajMiy3b7APGNo4zIdBp7jxHpWjpDBx76xVedw4VK7owesS2ofZpS1wxvppKIP3CNTZJf3mUwrUaKuepWXzlwW7RIvaBFqRBI0ydDJEW9qUDmjEKVl9nfgsjEOaEvmZf7uo0daJuK8BAh7ERJTdoZo1giiuuA+ctmuMXELUj1ZQPFp3pKjBRoS51kNwTOV0pW2hnjDAuxtwIoPSd+5u07JEnNXRIrgtUBuRtQjkwinVSfaVHwqpqvzKKt0OflnWrDP/IFZNCIn4XeS6lTVdggvhkSWgkXYunEJk2w7/IkH+JMl9G/uh07p7uOHzBTpzZsYAsoaNqmmbOrSk5BC41IZgUK1EEbWc7rbT5ze3dEksrda871wK7ZtWFhqmhtdsx4TipKhVcsFJKkI+udZV8ZQlG4jvPr/sL9FldsoeBbEZx92EDkfn0osGTOOOef6OG8sGubOllEasRLdNdM2ppDkgqZF3AaHbXeDIHCppbyemB86W6yu/GEL5vQ8cmcZZ0xzoVxG13bZfo9l+UBxTnjLWeNs0y+23SPs7nJtM5R0Td+SSkwgbFhnXUl1r3MxldxqgiF1umsVfZOF7pJdAuFQjeRL81bHarU7iIla8U5YaQp1w9JWUbZtm0jTh1DatTRhoyQWIyYx5CJOmCY562IU0WMoyOS7pGyccMwbOef2yQd+IiSLa6CHTbndsBR+y1ET2KqX1FlnmkExaki3ukaMiTjShWVQqA20PU5sJQYCXyLPENMhTqScvldcA84WD9jR4rKijsfTjmbJ1i4qHuXUMHsX4H7xehJEponfMKMC8nhguwTteSzUc5i1lUfYNp+sqQFVw99xCMBxrFy4mXTopemLFUUUFtsZhNg9wxdoWQi1fhYuU0Q3BnC8tspvQrE0TK1iVMeXnfjgXuis+eBKrvzC7k+Mm3SPt5sV2fakmQpqBlL3DU6JyVPFRU6jI4G4WyCVlNu0pKm2aTVgT7Wpe8EW5KOLeerOPotSjjFZ9WGDIXuvUxSXZKScdFZdBw025RrTnJunVPK4MWbeFphk24T+Wxp2SleN2UoEVm1PEitaisdMuvMZrfsXP7FZne7JZ0YmvUWX4x02paKkIvu64Vh+TAUrsmkDCvuwyqfqSatu/WOLTkZ38zar7ufIpZ4ThvoNSTTKbtxzdFrpbbyXsFmIu9D7Y9lJG5Ofagf9OaiUGuF7CJ7T52ZLparkoMZpcjXX7JO1OH+BYBi3LLLnVbt0x09349u7fLV2vyVDtNMmqaZzmWLxkWjVfua5G4hcVrLZGq10/xBz934LNy/9XLZbl9VO9XXs/bzvKS8m+GII4444ogjjjjiiCOOOOKII4444ogjjjgiCCqjQW+5uH98u12tVm+Pj0+LybA/PvSofgoqg8n9KqZrsWg0GvHh/Kxp2vRu0j/08A6O/vI2qjnUhJlwqNLDi9GhB3lA9GdhjcfOlqaoPjv0QA+E8WQq52cNbbG55M9hh/y9+DPTYmr8eOvNu2am66uHA4/72zCe6VFVflzorjoa6A5Z+uP/QzO9xwIR5Ky0gXPVUPMkSp/9fl9gdKsFI8ihaOhcV9lormh0WTn0HPaLgaasgz4Q64ErY+HeoWexT1SAFVs7ibFYTPMQi7neI4OioXdt3/8sok2HB57HHvGge8w4vGiaroXf7pxQY9IbPjwMBoOH4ftkcRfWKTnTNoZsPPWVWERbDQ47kf1hPNV1J7CYTXqDEUfvjod3OiRJ88OQym3sQwD1219LEo8Z8J0VsHna1tLfb3V9RH/7tSSpYErKkU6YsKUePpLkoRcjmAiTnwxJVeUst/+Nw40xIpynyCP4qB8mV6GjuH+1CyAAQVF0AT8avxEi5pIUnvxyZ5INgqIYJSYzPQxIisUW/6sswBoERRqdeuwhtyAc1e//bwnKMbnQGMtoNMWhcFT/1UqpMpy8QyEg1DXS1v4l91Q0HNEivzWL259pWjSmP5G/e9gSEF2yL+vRAXEkqj/+vuitMnzb5Nc00nBNtuuIoYrWoBfb2r79LlEaLSJbWdAInfP0MftNWpaJGdbaa1HS3nq/xAuo9G51MjeiE4Z7G4BEn/h3OHmIMhOYES369AtCk8FTDGX4Ccv1Z6uKNKFyGT9ycphRZ8H9025AfxHW8PvXltvPh9uJxyRrhqG1/QWnT5f/qFoaTaY6XULTSNs+++Avei+7HVeQPJZWk3+OpT+TFYMfJ2QHgVh4q8MVIvmeoKTisrT8h1bcaHKrM0uM0TDQrlvHUWTPthjjPCVmaboY/As2rr9kyo8nQvdwAluvCEf5PDyEhbU5xxGI3A9/dAWu8iBocYhGsNG6/fimrhrBV5g+EmRJ+7FLbjR5jPFbHCL6HX67W5MfuVN/TH8lLdE5NEXvez9Mf4+HjviIOhxoESKzsnogB7DHdiQRTTEt/PRTaBo/LKa6uEMmos8YavTRvyRyG+yJlYVktfnCFNMjT70DL7o/w8VKQo+Xd2YNc5srCiZELkZC2wZp0mKPy4eDqPBK//1JJj0eotF35g3e/XUWVIg8DOQqieBJ06f3k8E38lTpDxe3zttRaT9jrzEXH/ZM320pDKdBWitccXJ4Wj6M9u05jfu9xW1EV2LHI+iOpzFHfu5eHnvwMImo98Cth+PKU2Q1m+yHqHF/uLybamqysxmRJijIL32zpO1e1ahMojHhCNjDcluZo9O7Re9BpayuAIeb99lb2FtYQV5aRJuKAi8/PtMmnxlcZYlzLcrDc5eepkVunxbvw/5OXI1HDjWL+5XbPB6QnDVBYWEGaLCxZ5HVjuT4cCVpN5J8pjyqdC18ez9bvPeGg/5oNOasw/GfUX/w0Htfzu7fws41O1HjEyTrnvJTsvoXeHeT8A49cQyyvEYxt0lMd+DyPl2tVrcOnP+mbvrO+fW2h+xTj3QcIVmBorJR1p9bZh8YBnAB1KeB8HV3jqr0umycomiA4EyMwWOwDubDwbGqTypuzsp7J5HpF9re0WxXzf2diGiRpZJp6K+7q6Nf28Xg7aY4NAdCRPVb1Rqpl7SOcKuLu2Nwz8nn/QBEtOhM2ThV1gztpQY2dqsKh2aDRsRR0UGK7D1tbwy56M+iezBwn4CjoaeTYEplEQ1HI/tMd1WGdwH2MO0XkZ3KoQNdo9K0X41x7zF2eFny+NlpuYy/JXUz7t0JsunfwY8+/fnl9PHwSWHb6V7o0bTbf6ZE7Fb2vpemSEwPz352PY+CW6FRzgN+kh5HfP7VXfWj3lN4v9LkZqCi/yo9PkbDxSpQ4lSdHUd4prOfUrj7JMb999kqcA6VT45Xh/rmAst3wC1TPIZdgdqdqXVqN3y76P02dgi4JYv7W0dDaQHyiP5mzcjqbvmbyQGo9B/el7PH1SYb7Z78Qh7+4iVsNzlbXY9M3+4Xk4c+L7392zHu9wfD3mS5mD3d3zl4fHx0/7t/mnl7ewf9vRcqj/g8/gPCHcslsIMp1AAAAABJRU5ErkJggg==;" parent="1" vertex="1">
                    <mxGeometry x="373" y="70" width="103.33" height="62" as="geometry"/>
                </mxCell>
            </root>
        </mxGraphModel>
    </diagram>
</mxfile>
